<svg xmlns="http://www.w3.org/2000/svg" version="1.1" xmlns:xlink="http://www.w3.org/1999/xlink" width="357.96347" height="351.72717"><svg preserveAspectRatio="xMidYMid" version="1.1" style="display:block" viewBox="0 0 715.92694 703.45435" width="357.96347" height="351.72717" id="SvgjsSvg1134" xmlns="http://www.w3.org/2000/svg" xmlns:svg="http://www.w3.org/2000/svg">
  <defs id="SvgjsDefs1133"></defs>
  <path fill="#ffffff" d="M -1.0058594e-5,2.8398438e-5 H 715.92694 V 703.45436 H -1.0058594e-5 Z" id="SvgjsPath1132" style="display:none;stroke-width:0.346515"></path>
  <path fill="rgb(176,34,33)" d="m 329.86344,-744.00214 c 525.8,-15.7446 964.78996,397.7985 980.41996,923.6045 15.63,525.81 -397.99996,964.70004 -923.80996,980.23004 -525.654,15.52 -964.3913,-397.97004 -980.0212,-923.62004 -15.63,-525.651 397.7642,-964.4746 923.4112,-980.2145 z" id="SvgjsPath1131" style="display:none;fill:#42588b;fill-opacity:1"></path>
  <path fill="#ffffff" d="m 24.77644,-524.38664 c 0.697,-0.037 1.394,-0.072 2.091,-0.079 11.288,-0.119 22.938,4.32 30.844,12.413 5.614,5.743 9.535,12.924 11.33,20.752 4.454,19.328 1.956,70.655 1.896,93.371 85.559,-1.811 171.436,-0.193 257.025,-0.025 l 315.971,-0.582 -0.21,-50.687 c -0.04,-11.833 -1.28,-25.23 1.42,-36.8 1.89,-8.013 5.87,-15.386 11.52,-21.375 8.17,-8.582 20.05,-13.342 31.86,-13.361 11.4,-0.019 22.52,6.173 30.32,14.248 4.37,4.531 7.93,9.988 9.61,16.097 4.99,18.073 2.45,70.8 2.46,91.84 l 99.1,0.126 c 26.6,-0.048 56.62,-2.981 82.56,3.338 19.46,4.646 37.32,14.432 51.7,28.337 14.73,14.467 26.4,33.51 30.85,53.805 4.43,20.245 2.89,42.493 2.9,63.164 l -0.02,77.112 c -0.35,92.019998 -0.13,184.041998 0.65,276.06 l -0.1,402.125 -0.21,126.08 c -0.12,23.89 1.53,49.29 -2.44,72.86 -4,24.32 -15.46,46.79 -32.81,64.3 -42.62,42.45 -93.87,34.47 -148.55,34.35 l -677.933,0.58 -210.038,-0.23 -61.158,0.01 c -17.179,0 -35.393,1.11 -52.244,-2.62 -22.747,-5.04 -44.857,-17.57 -61.342,-33.95 -16.735,-16.64 -29.424,-38.88 -33.478,-62.24 -4.852,-27.96 -2.354,-58.88 -2.314,-87.33 l -0.082,-137.24 0.456,-522.547002 0.57,-166.117998 c 0.068,-28.345 -2.716,-78.983 3.568,-104.826 4.888,-20.098 16.003,-38.669 30.682,-53.167 14.726,-14.545 34.166,-24.563 54.262,-29.221 24.081,-5.581 51.536,-3.06 76.155,-3.02 l 103.192,0.152 -0.065,-57.717 c -0.019,-11.199 -1.053,-23.365 1.122,-34.349 1.167,-5.915 3.62,-11.501 7.1859999,-16.362 8.113,-10.985 18.6760001,-15.209 31.6940001,-17.274 z" id="SvgjsPath1130" style="display:none"></path>
  <path fill="rgb(176,34,33)" d="m 340.15344,37.055358 c 174.75,-9.961 324.63,123.321002 335.15,298.037002 10.52,174.72 -122.28,325.02 -296.97,336.1 -175.469,11.12 -326.6,-122.41 -337.167,-297.92 -10.567,-175.51 123.451,-326.211002 298.987,-336.217002 z" id="SvgjsPath1129" style="display:inline;fill:#8a9fd5;fill-opacity:1"></path>
  <path fill="#ffffff" d="m 328.02944,54.702358 c 20.054,-2.629 43.104,-0.245 62.544,5.165 37.7,10.494 69.16,33.997 88.29,68.288002 19,34.069 23.84,77.227 12.86,114.617 -15.48,52.73 -59.14,90.75 -112.47,102.13 -36.58,7.8 -55.492,3.46 -91.005,23.06 -33.364,18.41 -61.116,52.01 -71.674,88.77 -11.828,39.82 -7.233,82.72 12.763,119.13 20.515,36.74 54.123,62.31 94.37,73.83 4.676,0.87 9.189,2.21 13.756,3.52 -59.251,1.06 -128.139,-30.54 -173.106,-67.3 -60.124,-49.04 -98.381,-119.89 -106.403,-197.06 -7.889,-81.27 15.158,-161.4 67.291,-224.533 50.12,-60.698 124.261,-101.971002 202.784,-109.617002 z" id="SvgjsPath1128" style="display:inline"></path>
  <path fill="rgb(176,34,33)" d="m 350.06344,152.50636 c 17.02,-2.523 34.07,4.325 44.62,17.914 10.55,13.59 12.95,31.812 6.28,47.672 -6.67,15.85 -21.36,26.89 -38.45,28.86 -25.84,2.98 -49.294,-15.32 -52.692,-41.1 -3.398,-25.788 14.515,-49.532 40.242,-53.346 z" id="SvgjsPath1127" style="display:inline;fill:#8a9fd5;fill-opacity:1"></path>
  <path fill="#ffffff" d="m 350.96344,449.62236 c 24.92,-3.42 47.95,13.84 51.66,38.71 3.71,24.88 -13.28,48.11 -38.11,52.11 -16.32,2.63 -32.797,-3.72 -43.136,-16.62 -10.339,-12.9 -12.944,-30.36 -6.82,-45.72 6.124,-15.36 20.026,-26.24 36.406,-28.48 z" id="SvgjsPath1126" style="display:inline"></path>
  <path fill="rgb(176,34,33)" d="m 931.89344,-34.367642 43.02,0.377 0.11,522.203002 0.08,139.51 c 0.04,21.77 2.15,51.47 -1.03,72.21 -2.79,18.13 -12.2,36.62 -25.02,49.69 -19.01,19.4 -42.78,30.38 -69.93,30.68 -23.68,0.26 -47.41,-0.73 -71.09,-0.82 l -164.75,-0.11 -499.541,0.14 -213.973,-0.09 -63.128,0.09 c -13.49,0.02 -27.615,0.68 -41,-1.03 -21.039,-2.57 -40.624,-12.07 -55.669,-27 -14.175,-14.05 -24.846,-32.02 -28.103,-51.88 -3.59,-21.89 -1.429,-46.68 -1.349,-68.86 l 0.226,-121.55 -0.577,-460.896002 -0.189,-81.78 44.677,0.429 -0.104,17.019 -0.5,479.458002 0.288,129.35 c -0.003,24.26 -1.945,50.32 1.422,74.28 2.599,18.76 11.194,36.18 24.504,49.67 10.534,10.47 24.752,18.16 39.478,20.52 19.262,3.09 40.401,1.76 59.929,1.8 l 96.0639999,0.14 374.1850001,-0.28 332.27,-0.02 89.57,0.09 c 20.99,0.05 42.86,1.52 63.61,-1.97 16.41,-2.69 31.58,-10.45 43.37,-22.19 11.4,-11.49 19.89,-27.49 22.25,-43.58 3.24,-22.07 1.03,-48.23 1,-70.72 l -0.02,-134.91 z" id="SvgjsPath1125" style="display:none;fill:#42588b;fill-opacity:1"></path>
</svg><style>@media (prefers-color-scheme: light) { :root { filter: none; } }
@media (prefers-color-scheme: dark) { :root { filter: none; } }
</style></svg>